<svg xmlns="http://www.w3.org/2000/svg" viewBox="0 0 454.84 114.37"><defs><style>.cls-1{isolation:isolate;}.cls-2{mix-blend-mode:luminosity;}.cls-3{fill:#6b6b6b;}.cls-4{fill:#c9c9c9;}.cls-5{fill:red;}.cls-6{fill:#fff;}</style></defs><g class="cls-1"><g id="Layer_2" data-name="Layer 2"><g class="cls-2"><path class="cls-3" d="M86.68,113.91a19.76,19.76,0,0,1-5.47-.73A12.8,12.8,0,0,1,76.77,111a10.19,10.19,0,0,1-3-3.64,11.62,11.62,0,0,1-1.07-5.16A12.23,12.23,0,0,1,74,96.3a9.54,9.54,0,0,1,3.6-3.67,19.81,19.81,0,0,1,5.59-2.14,64.1,64.1,0,0,1,7.23-1.23,37.62,37.62,0,0,0,4.13-.61,12.85,12.85,0,0,0,3.14-1,5.15,5.15,0,0,0,2-1.65,4.47,4.47,0,0,0,.69-2.6,6.52,6.52,0,0,0-2.26-5.28c-1.5-1.28-3.69-1.91-6.54-1.91q-4.9,0-7.31,2.14a7.84,7.84,0,0,0-2.57,5.81H74.81a12.94,12.94,0,0,1,1.15-5A12.59,12.59,0,0,1,79.1,75,15.27,15.27,0,0,1,84.27,72,22.2,22.2,0,0,1,91.5,71a25.9,25.9,0,0,1,5.43.54,15,15,0,0,1,4.52,1.68,10.63,10.63,0,0,1,4.06,4.29A14.6,14.6,0,0,1,107,84.36v19.22a6.53,6.53,0,0,0,.84,3.67c.56.82,1.74,1,3.52.61h.31v5q-.76.22-1.65.42a11,11,0,0,1-2.18.19,7,7,0,0,1-5-1.57,8.63,8.63,0,0,1-2.3-4.86h-.07a18.08,18.08,0,0,1-2.3,2.6,14.93,14.93,0,0,1-3,2.18,16.07,16.07,0,0,1-3.78,1.53A17.66,17.66,0,0,1,86.68,113.91Zm1.76-5.21a12.69,12.69,0,0,0,5.32-1,12.22,12.22,0,0,0,3.75-2.6,10.62,10.62,0,0,0,2.22-3.48,10.46,10.46,0,0,0,.73-3.68V91.18a15.88,15.88,0,0,1-4,1.72,51.51,51.51,0,0,1-5,1.19c-1.68.3-3.21.62-4.59,1a12.2,12.2,0,0,0-3.52,1.38,6.58,6.58,0,0,0-2.26,2.22,8,8,0,0,0-.11,6.73,5.55,5.55,0,0,0,1.84,2,6.86,6.86,0,0,0,2.64,1A17.84,17.84,0,0,0,88.44,108.7Z"/><path class="cls-3" d="M116.15,56.12h7.11v57h-7.11Z"/><path class="cls-3" d="M129.23,72h6.36V66.3c0-3.77,1-6.5,2.9-8.19a9,9,0,0,1,3.79-1.84,23.39,23.39,0,0,1,5.25-.53c.56,0,1.14,0,1.76,0s1.25.06,1.91.11v5.89a32.64,32.64,0,0,0-4.17,0,5.63,5.63,0,0,0-2.6.69A3,3,0,0,0,143.09,64a7.19,7.19,0,0,0-.39,2.6V72h8.42v5.58H142.7v35.52h-7.11V77.55h-6.36Z"/><path class="cls-3" d="M164.06,79.39h.23a16.32,16.32,0,0,1,5-5.78,12.11,12.11,0,0,1,7.2-2.18,7.91,7.91,0,0,1,1.41.11,8.34,8.34,0,0,1,1.19.35v6.73h-.23a8.67,8.67,0,0,0-1.38-.3,12.85,12.85,0,0,0-1.53-.08,11.66,11.66,0,0,0-4.51.88,11.53,11.53,0,0,0-3.76,2.49,12,12,0,0,0-2.56,3.9,13.4,13.4,0,0,0-1,5.21v22.35H157V72h7Z"/><path class="cls-3" d="M200.8,114.21a20.28,20.28,0,0,1-8.46-1.68A18.42,18.42,0,0,1,186,107.9a20,20,0,0,1-3.95-6.89,26.18,26.18,0,0,1-1.34-8.46,24.5,24.5,0,0,1,1.42-8.38,21.46,21.46,0,0,1,4-6.89,18.52,18.52,0,0,1,6.2-4.63A19,19,0,0,1,200.41,71a18.64,18.64,0,0,1,8.12,1.68,17.48,17.48,0,0,1,6,4.67,20.66,20.66,0,0,1,3.79,7.35,33.91,33.91,0,0,1,1.26,9.57H188a22,22,0,0,0,1.15,5.58,14.48,14.48,0,0,0,2.53,4.52,11.25,11.25,0,0,0,3.9,3,14,14,0,0,0,12.36-.81,9.21,9.21,0,0,0,3.79-5.16h7a16.06,16.06,0,0,1-6.09,9.3A19.06,19.06,0,0,1,200.8,114.21Zm-.39-37.73a11.82,11.82,0,0,0-4.89,1,11,11,0,0,0-3.68,2.64,13.2,13.2,0,0,0-2.45,4,19.16,19.16,0,0,0-1.22,5H212q-.3-6-3.25-9.3T200.41,76.48Z"/><path class="cls-3" d="M241.52,114.29a18,18,0,0,1-7.51-1.53,16.4,16.4,0,0,1-5.74-4.32,19.42,19.42,0,0,1-3.63-6.82,30,30,0,0,1-1.26-9,27.83,27.83,0,0,1,1.37-9.07,20.37,20.37,0,0,1,3.79-6.81,16.57,16.57,0,0,1,5.7-4.29A17.14,17.14,0,0,1,241.36,71a14.66,14.66,0,0,1,7.69,2,15.28,15.28,0,0,1,5.32,5.28h.16a34,34,0,0,1-.19-3.44c0-1.38,0-2.76,0-4.14V56.12h7.12v57h-7.05v-5.9h-.15a13.94,13.94,0,0,1-12.7,7.12Zm.53-5.89a12.61,12.61,0,0,0,5.67-1.19,11,11,0,0,0,3.94-3.29,13.92,13.92,0,0,0,2.29-5,25.05,25.05,0,0,0,.73-6.23,24.08,24.08,0,0,0-.8-6.36,14.68,14.68,0,0,0-2.41-5,11,11,0,0,0-4-3.25,12.32,12.32,0,0,0-5.44-1.15,9.85,9.85,0,0,0-8.53,4.48,15.68,15.68,0,0,0-2.15,5,26.08,26.08,0,0,0-.72,6.28,25.54,25.54,0,0,0,.72,6.23,15.7,15.7,0,0,0,2.15,5,10.18,10.18,0,0,0,3.56,3.29A10.07,10.07,0,0,0,242.05,108.4Z"/><path class="cls-3" d="M287.59,114.21a20.1,20.1,0,0,1-8.38-1.68,18.42,18.42,0,0,1-6.31-4.63,20.81,20.81,0,0,1-4-6.89,25.67,25.67,0,0,1,0-16.84,21,21,0,0,1,4-6.89,18.55,18.55,0,0,1,6.31-4.63A20.1,20.1,0,0,1,287.59,71a19.85,19.85,0,0,1,8.34,1.68,18.83,18.83,0,0,1,6.28,4.63,20.75,20.75,0,0,1,4,6.89,26.38,26.38,0,0,1,0,16.84,20.55,20.55,0,0,1-4,6.89,18.7,18.7,0,0,1-6.28,4.63A19.85,19.85,0,0,1,287.59,114.21Zm-.07-5.81a12,12,0,0,0,5.54-1.23,11.39,11.39,0,0,0,4-3.36,14.91,14.91,0,0,0,2.41-5,24.29,24.29,0,0,0,0-12.44,15.46,15.46,0,0,0-2.41-5.09,11.29,11.29,0,0,0-4-3.4,13.11,13.11,0,0,0-11.09,0,11.29,11.29,0,0,0-4,3.4,15.46,15.46,0,0,0-2.41,5.09,24.29,24.29,0,0,0,0,12.44,14.91,14.91,0,0,0,2.41,5,11.39,11.39,0,0,0,4,3.36A12,12,0,0,0,287.52,108.4Z"/><path class="cls-4" d="M328.23,114.37a16.94,16.94,0,0,1-7.19-1.49,15.63,15.63,0,0,1-5.51-4.29,19.44,19.44,0,0,1-3.52-6.81,31,31,0,0,1-1.23-9.07,27.86,27.86,0,0,1,1.27-8.61,21.12,21.12,0,0,1,3.55-6.82,16,16,0,0,1,12.79-6.08A13.27,13.27,0,0,1,335.5,73a15.88,15.88,0,0,1,5,5h.15c-.1-1.27-.18-2.73-.23-4.36s-.07-3.32-.07-5.05V56.12h12v57H340.79v-6h-.16a11.65,11.65,0,0,1-5,5.51A15.32,15.32,0,0,1,328.23,114.37Zm3.22-9.65a8,8,0,0,0,6.81-3.33,14.31,14.31,0,0,0,2.45-8.68,20.13,20.13,0,0,0-.58-5,11.72,11.72,0,0,0-1.72-3.94,8,8,0,0,0-2.87-2.56,8.31,8.31,0,0,0-4-.92,7,7,0,0,0-6.39,3.4,16.83,16.83,0,0,0-2.1,8.92,16.19,16.19,0,0,0,2.1,8.8A7,7,0,0,0,331.45,104.72Z"/><path class="cls-4" d="M358.77,72.35h12v40.72h-12Zm5.36-18.45h14L369,66.22h-9Z"/><path class="cls-4" d="M396.81,114.29a23.14,23.14,0,0,1-8.95-1.65,19.51,19.51,0,0,1-6.78-4.55,20,20,0,0,1-4.28-6.81,24.69,24.69,0,0,1,0-17,20.71,20.71,0,0,1,4.29-6.85,19.55,19.55,0,0,1,6.58-4.55A22.83,22.83,0,0,1,404,72.58a19.89,19.89,0,0,1,6.16,3.82,20.18,20.18,0,0,1,5.06,8.35,34.32,34.32,0,0,1,1.53,11h-29.7a12.63,12.63,0,0,0,3.06,7.19,8.88,8.88,0,0,0,6.81,2.6,9.2,9.2,0,0,0,4.63-1,7.16,7.16,0,0,0,2.8-2.94H416a16.55,16.55,0,0,1-2.41,5,17,17,0,0,1-4.06,4.06,18.75,18.75,0,0,1-5.62,2.67A24.82,24.82,0,0,1,396.81,114.29Zm-.61-34.6a7.91,7.91,0,0,0-6.28,2.45,12.61,12.61,0,0,0-2.75,6.66h17.37A10.65,10.65,0,0,0,402,82.11,7.52,7.52,0,0,0,396.2,79.69Z"/><path class="cls-4" d="M419.31,104.11l14.54-16.46c.62-.66,1.31-1.37,2.07-2.14s1.51-1.45,2.22-2.06,1.66-1.43,2.53-2.15v-.23l-3.14.31c-.87.1-1.81.18-2.83.23s-2,.08-2.83.08h-10.8V72.35h33.07V81l-14,15.92q-1.06,1.14-2.37,2.37c-.87.82-1.71,1.58-2.53,2.3s-1.86,1.6-2.83,2.37v.23c1.12,0,2.24-.13,3.37-.23,1-.1,2-.18,3.1-.23s2.1-.08,3-.08h13.32v9.42h-35.9Z"/></g><path class="cls-5" d="M18.45,16.11,12.49,1H.21l5,12.48a4.23,4.23,0,0,0,3.92,2.65Z"/><path class="cls-6" d="M56.24,1,50.3,16.49a6.88,6.88,0,0,1-6.42,4.41H11.26a2.06,2.06,0,0,0-1.92,2.83L29.62,74.25h9.49L68.63,1Zm-23,57.41L23.55,32a1.9,1.9,0,0,1,1.78-2.56H43.82A1.88,1.88,0,0,1,45.57,32L35.49,58.41A1.18,1.18,0,0,1,33.28,58.39Z"/></g></g></svg>