<svg xmlns="http://www.w3.org/2000/svg" xmlns:xlink="http://www.w3.org/1999/xlink" viewBox="0 0 1428 117"><defs><style>.cls-1{fill:none;}.cls-2{clip-path:url(#clip-path);}.cls-3{opacity:0.29;}.cls-4{fill:#fff;}.cls-5{opacity:0.08;}</style><clipPath id="clip-path"><rect class="cls-1" width="1428" height="117"/></clipPath></defs><g id="Layer_2" data-name="Layer 2"><g class="cls-2"><g class="cls-3"><path class="cls-4" d="M6.7,46.5,2.26,35.25H-6.87l3.72,9.28a3.16,3.16,0,0,0,2.93,2Z"/><path class="cls-4" d="M22.34,46.5,17.91,35.25H8.78l3.72,9.28a3.15,3.15,0,0,0,2.92,2Z"/><path class="cls-4" d="M38,46.5,33.56,35.25H24.42l3.73,9.28a3.14,3.14,0,0,0,2.92,2Z"/><path class="cls-4" d="M53.64,46.5,49.2,35.25H40.07l3.73,9.28a3.13,3.13,0,0,0,2.92,2Z"/><path class="cls-4" d="M69.28,46.5,64.85,35.25H55.72l3.72,9.28a3.15,3.15,0,0,0,2.92,2Z"/><path class="cls-4" d="M84.93,46.5,80.5,35.25H71.36l3.73,9.28a3.14,3.14,0,0,0,2.92,2Z"/><path class="cls-4" d="M100.58,46.5,96.15,35.25H87l3.73,9.28a3.13,3.13,0,0,0,2.92,2Z"/><path class="cls-4" d="M116.22,46.5l-4.43-11.25h-9.13l3.72,9.28a3.15,3.15,0,0,0,2.92,2Z"/><path class="cls-4" d="M131.87,46.5l-4.43-11.25H118.3L122,44.53a3.14,3.14,0,0,0,2.92,2Z"/><path class="cls-4" d="M147.52,46.5l-4.43-11.25H134l3.73,9.28a3.13,3.13,0,0,0,2.92,2Z"/><path class="cls-4" d="M163.16,46.5l-4.43-11.25H149.6l3.72,9.28a3.15,3.15,0,0,0,2.92,2Z"/><path class="cls-4" d="M178.81,46.5l-4.43-11.25h-9.14L169,44.53a3.15,3.15,0,0,0,2.92,2Z"/><path class="cls-4" d="M194.46,46.5,190,35.25h-9.14l3.73,9.28a3.14,3.14,0,0,0,2.92,2Z"/><path class="cls-4" d="M210.11,46.5l-4.44-11.25h-9.13l3.72,9.28a3.15,3.15,0,0,0,2.92,2Z"/><path class="cls-4" d="M225.75,46.5l-4.43-11.25h-9.14l3.73,9.28a3.15,3.15,0,0,0,2.92,2Z"/><path class="cls-4" d="M241.4,46.5,237,35.25h-9.14l3.73,9.28a3.14,3.14,0,0,0,2.92,2Z"/><path class="cls-4" d="M257.05,46.5l-4.44-11.25h-9.13l3.72,9.28a3.15,3.15,0,0,0,2.92,2Z"/><path class="cls-4" d="M272.69,46.5l-4.43-11.25h-9.14l3.73,9.28a3.15,3.15,0,0,0,2.92,2Z"/><path class="cls-4" d="M288.34,46.5l-4.43-11.25h-9.14l3.73,9.28a3.14,3.14,0,0,0,2.92,2Z"/><path class="cls-4" d="M304,46.5l-4.44-11.25h-9.13l3.72,9.28a3.16,3.16,0,0,0,2.93,2Z"/><path class="cls-4" d="M319.63,46.5,315.2,35.25h-9.13l3.72,9.28a3.15,3.15,0,0,0,2.92,2Z"/><path class="cls-4" d="M335.28,46.5l-4.43-11.25h-9.14l3.73,9.28a3.14,3.14,0,0,0,2.92,2Z"/><path class="cls-4" d="M350.93,46.5l-4.44-11.25h-9.13l3.72,9.28a3.16,3.16,0,0,0,2.93,2Z"/><path class="cls-4" d="M366.57,46.5l-4.43-11.25H353l3.72,9.28a3.15,3.15,0,0,0,2.92,2Z"/><path class="cls-4" d="M382.22,46.5l-4.43-11.25h-9.14l3.73,9.28a3.14,3.14,0,0,0,2.92,2Z"/><path class="cls-4" d="M397.87,46.5l-4.44-11.25H384.3L388,44.53a3.16,3.16,0,0,0,2.93,2Z"/><path class="cls-4" d="M413.51,46.5l-4.43-11.25H400l3.72,9.28a3.15,3.15,0,0,0,2.92,2Z"/><path class="cls-4" d="M429.16,46.5l-4.43-11.25h-9.14l3.73,9.28a3.14,3.14,0,0,0,2.92,2Z"/><path class="cls-4" d="M444.81,46.5l-4.44-11.25h-9.13L435,44.53a3.16,3.16,0,0,0,2.93,2Z"/><path class="cls-4" d="M460.45,46.5,456,35.25h-9.13l3.72,9.28a3.15,3.15,0,0,0,2.92,2Z"/><path class="cls-4" d="M476.1,46.5l-4.43-11.25h-9.14l3.73,9.28a3.14,3.14,0,0,0,2.92,2Z"/><path class="cls-4" d="M491.75,46.5l-4.44-11.25h-9.13l3.72,9.28a3.16,3.16,0,0,0,2.93,2Z"/><path class="cls-4" d="M507.39,46.5,503,35.25h-9.13l3.72,9.28a3.15,3.15,0,0,0,2.92,2Z"/><path class="cls-4" d="M523,46.5l-4.43-11.25h-9.14l3.73,9.28a3.14,3.14,0,0,0,2.92,2Z"/><path class="cls-4" d="M538.69,46.5l-4.44-11.25h-9.13l3.73,9.28a3.13,3.13,0,0,0,2.92,2Z"/><path class="cls-4" d="M554.33,46.5,549.9,35.25h-9.13l3.72,9.28a3.15,3.15,0,0,0,2.92,2Z"/><path class="cls-4" d="M570,46.5l-4.43-11.25h-9.14l3.73,9.28a3.14,3.14,0,0,0,2.92,2Z"/><path class="cls-4" d="M585.63,46.5,581.2,35.25h-9.14l3.73,9.28a3.13,3.13,0,0,0,2.92,2Z"/><path class="cls-4" d="M601.27,46.5l-4.43-11.25h-9.13l3.72,9.28a3.15,3.15,0,0,0,2.92,2Z"/><path class="cls-4" d="M616.92,46.5l-4.43-11.25h-9.14l3.73,9.28a3.14,3.14,0,0,0,2.92,2Z"/><path class="cls-4" d="M632.57,46.5l-4.43-11.25H619l3.73,9.28a3.13,3.13,0,0,0,2.92,2Z"/><path class="cls-4" d="M648.21,46.5l-4.43-11.25h-9.13l3.72,9.28a3.15,3.15,0,0,0,2.92,2Z"/><path class="cls-4" d="M663.86,46.5l-4.43-11.25h-9.14L654,44.53a3.15,3.15,0,0,0,2.92,2Z"/><path class="cls-4" d="M679.51,46.5l-4.43-11.25h-9.14l3.73,9.28a3.14,3.14,0,0,0,2.92,2Z"/><path class="cls-4" d="M695.15,46.5l-4.43-11.25h-9.13l3.72,9.28a3.15,3.15,0,0,0,2.92,2Z"/><path class="cls-4" d="M710.8,46.5l-4.43-11.25h-9.14L701,44.53a3.15,3.15,0,0,0,2.92,2Z"/><path class="cls-4" d="M726.45,46.5,722,35.25h-9.14l3.73,9.28a3.14,3.14,0,0,0,2.92,2Z"/><path class="cls-4" d="M742.1,46.5l-4.44-11.25h-9.13l3.72,9.28a3.15,3.15,0,0,0,2.92,2Z"/><path class="cls-4" d="M757.74,46.5l-4.43-11.25h-9.14l3.73,9.28a3.15,3.15,0,0,0,2.92,2Z"/><path class="cls-4" d="M773.39,46.5,769,35.25h-9.14l3.73,9.28a3.14,3.14,0,0,0,2.92,2Z"/><path class="cls-4" d="M789,46.5,784.6,35.25h-9.13l3.72,9.28a3.16,3.16,0,0,0,2.93,2Z"/><path class="cls-4" d="M804.68,46.5l-4.43-11.25h-9.14l3.73,9.28a3.15,3.15,0,0,0,2.92,2Z"/><path class="cls-4" d="M820.33,46.5,815.9,35.25h-9.14l3.73,9.28a3.14,3.14,0,0,0,2.92,2Z"/><path class="cls-4" d="M836,46.5l-4.44-11.25h-9.13l3.72,9.28a3.16,3.16,0,0,0,2.93,2Z"/><path class="cls-4" d="M851.62,46.5l-4.43-11.25h-9.13l3.72,9.28a3.15,3.15,0,0,0,2.92,2Z"/><path class="cls-4" d="M867.27,46.5l-4.43-11.25H853.7l3.73,9.28a3.14,3.14,0,0,0,2.92,2Z"/><path class="cls-4" d="M882.92,46.5l-4.44-11.25h-9.13l3.72,9.28a3.16,3.16,0,0,0,2.93,2Z"/><path class="cls-4" d="M898.56,46.5l-4.43-11.25H885l3.72,9.28a3.15,3.15,0,0,0,2.92,2Z"/><path class="cls-4" d="M914.21,46.5l-4.43-11.25h-9.14l3.73,9.28a3.14,3.14,0,0,0,2.92,2Z"/><path class="cls-4" d="M929.86,46.5l-4.44-11.25h-9.13L920,44.53a3.16,3.16,0,0,0,2.93,2Z"/><path class="cls-4" d="M945.5,46.5l-4.43-11.25h-9.13l3.72,9.28a3.15,3.15,0,0,0,2.92,2Z"/><path class="cls-4" d="M961.15,46.5l-4.43-11.25h-9.14l3.73,9.28a3.14,3.14,0,0,0,2.92,2Z"/><path class="cls-4" d="M976.8,46.5l-4.44-11.25h-9.13L967,44.53a3.16,3.16,0,0,0,2.93,2Z"/><path class="cls-4" d="M992.44,46.5,988,35.25h-9.13l3.72,9.28a3.15,3.15,0,0,0,2.92,2Z"/><path class="cls-4" d="M1008.09,46.5l-4.43-11.25h-9.14l3.73,9.28a3.14,3.14,0,0,0,2.92,2Z"/><path class="cls-4" d="M1023.74,46.5l-4.44-11.25h-9.13l3.73,9.28a3.13,3.13,0,0,0,2.92,2Z"/><path class="cls-4" d="M1039.38,46.5,1035,35.25h-9.13l3.72,9.28a3.15,3.15,0,0,0,2.92,2Z"/><path class="cls-4" d="M1055,46.5l-4.43-11.25h-9.14l3.73,9.28a3.14,3.14,0,0,0,2.92,2Z"/><path class="cls-4" d="M1070.68,46.5l-4.43-11.25h-9.14l3.73,9.28a3.13,3.13,0,0,0,2.92,2Z"/><path class="cls-4" d="M1086.32,46.5l-4.43-11.25h-9.13l3.72,9.28a3.15,3.15,0,0,0,2.92,2Z"/><path class="cls-4" d="M1102,46.5l-4.43-11.25h-9.14l3.73,9.28a3.14,3.14,0,0,0,2.92,2Z"/><path class="cls-4" d="M1117.62,46.5l-4.43-11.25h-9.14l3.73,9.28a3.13,3.13,0,0,0,2.92,2Z"/><path class="cls-4" d="M1133.26,46.5l-4.43-11.25h-9.13l3.72,9.28a3.15,3.15,0,0,0,2.92,2Z"/><path class="cls-4" d="M1148.91,46.5l-4.43-11.25h-9.14l3.73,9.28a3.14,3.14,0,0,0,2.92,2Z"/><path class="cls-4" d="M1164.56,46.5l-4.43-11.25H1151l3.73,9.28a3.14,3.14,0,0,0,2.92,2Z"/><path class="cls-4" d="M1180.2,46.5l-4.43-11.25h-9.13l3.72,9.28a3.15,3.15,0,0,0,2.92,2Z"/><path class="cls-4" d="M1195.85,46.5l-4.43-11.25h-9.14l3.73,9.28a3.15,3.15,0,0,0,2.92,2Z"/><path class="cls-4" d="M1211.5,46.5l-4.43-11.25h-9.14l3.73,9.28a3.14,3.14,0,0,0,2.92,2Z"/><path class="cls-4" d="M1227.15,46.5l-4.44-11.25h-9.13l3.72,9.28a3.15,3.15,0,0,0,2.92,2Z"/><path class="cls-4" d="M1242.79,46.5l-4.43-11.25h-9.14l3.73,9.28a3.15,3.15,0,0,0,2.92,2Z"/><path class="cls-4" d="M1258.44,46.5,1254,35.25h-9.14l3.73,9.28a3.14,3.14,0,0,0,2.92,2Z"/><path class="cls-4" d="M1274.09,46.5l-4.44-11.25h-9.13l3.72,9.28a3.16,3.16,0,0,0,2.93,2Z"/><path class="cls-4" d="M1289.73,46.5l-4.43-11.25h-9.14l3.73,9.28a3.15,3.15,0,0,0,2.92,2Z"/><path class="cls-4" d="M1305.38,46.5,1301,35.25h-9.14l3.73,9.28a3.14,3.14,0,0,0,2.92,2Z"/><path class="cls-4" d="M1321,46.5l-4.44-11.25h-9.13l3.72,9.28a3.16,3.16,0,0,0,2.93,2Z"/></g><g class="cls-5"><path class="cls-4" d="M8.13,89.27-5.8,53.9H-34.5l11.71,29.16a9.89,9.89,0,0,0,9.18,6.21Z"/><path class="cls-4" d="M57.28,89.27,43.36,53.9H14.66l11.7,29.16a9.9,9.9,0,0,0,9.18,6.21Z"/><path class="cls-4" d="M106.44,89.27,92.51,53.9H63.81L75.52,83.06a9.89,9.89,0,0,0,9.18,6.21Z"/><path class="cls-4" d="M155.59,89.27,141.67,53.9H113l11.7,29.16a9.9,9.9,0,0,0,9.18,6.21Z"/><path class="cls-4" d="M204.75,89.27,190.82,53.9h-28.7l11.71,29.16A9.89,9.89,0,0,0,183,89.27Z"/><path class="cls-4" d="M253.9,89.27,240,53.9h-28.7L223,83.06a9.9,9.9,0,0,0,9.18,6.21Z"/><path class="cls-4" d="M303.06,89.27,289.13,53.9h-28.7l11.71,29.16a9.89,9.89,0,0,0,9.18,6.21Z"/><path class="cls-4" d="M352.21,89.27,338.29,53.9h-28.7l11.7,29.16a9.9,9.9,0,0,0,9.18,6.21Z"/><path class="cls-4" d="M401.37,89.27,387.44,53.9h-28.7l11.71,29.16a9.89,9.89,0,0,0,9.18,6.21Z"/><path class="cls-4" d="M450.52,89.27,436.6,53.9H407.9l11.7,29.16a9.9,9.9,0,0,0,9.18,6.21Z"/><path class="cls-4" d="M499.68,89.27,485.75,53.9h-28.7l11.71,29.16a9.89,9.89,0,0,0,9.18,6.21Z"/><path class="cls-4" d="M548.83,89.27,534.91,53.9h-28.7l11.7,29.16a9.9,9.9,0,0,0,9.18,6.21Z"/><path class="cls-4" d="M598,89.27,584.06,53.9h-28.7l11.71,29.16a9.89,9.89,0,0,0,9.18,6.21Z"/><path class="cls-4" d="M647.14,89.27,633.22,53.9h-28.7l11.7,29.16a9.9,9.9,0,0,0,9.18,6.21Z"/><path class="cls-4" d="M696.3,89.27,682.37,53.9h-28.7l11.71,29.16a9.89,9.89,0,0,0,9.18,6.21Z"/><path class="cls-4" d="M745.45,89.27,731.53,53.9h-28.7l11.7,29.16a9.9,9.9,0,0,0,9.18,6.21Z"/><path class="cls-4" d="M794.61,89.27,780.68,53.9H752l11.71,29.16a9.89,9.89,0,0,0,9.18,6.21Z"/><path class="cls-4" d="M843.76,89.27,829.84,53.9h-28.7l11.7,29.16A9.9,9.9,0,0,0,822,89.27Z"/><path class="cls-4" d="M892.92,89.27,879,53.9h-28.7L862,83.06a9.89,9.89,0,0,0,9.17,6.21Z"/><path class="cls-4" d="M942.07,89.27,928.15,53.9h-28.7l11.7,29.16a9.9,9.9,0,0,0,9.18,6.21Z"/><path class="cls-4" d="M991.23,89.27,977.3,53.9H948.6l11.71,29.16a9.88,9.88,0,0,0,9.17,6.21Z"/><path class="cls-4" d="M1040.38,89.27,1026.46,53.9h-28.7l11.7,29.16a9.9,9.9,0,0,0,9.18,6.21Z"/><path class="cls-4" d="M1089.54,89.27,1075.61,53.9h-28.7l11.71,29.16a9.88,9.88,0,0,0,9.17,6.21Z"/><path class="cls-4" d="M1138.69,89.27,1124.77,53.9h-28.7l11.7,29.16a9.9,9.9,0,0,0,9.18,6.21Z"/><path class="cls-4" d="M1187.85,89.27,1173.92,53.9h-28.7l11.71,29.16a9.88,9.88,0,0,0,9.17,6.21Z"/><path class="cls-4" d="M1237,89.27,1223.08,53.9h-28.7l11.7,29.16a9.9,9.9,0,0,0,9.18,6.21Z"/></g></g></g></svg>