<svg xmlns="http://www.w3.org/2000/svg" viewBox="0 0 45.4 45.4"><defs><style>.cls-1{fill:#c9c9c9;}</style></defs><g id="Layer_2" data-name="Layer 2"><path class="cls-1" d="M31.76,0H13.63A13.65,13.65,0,0,0,0,13.63V31.76A13.65,13.65,0,0,0,13.63,45.4H31.76A13.66,13.66,0,0,0,45.4,31.76V13.63A13.65,13.65,0,0,0,31.76,0Zm9.63,31.76a9.64,9.64,0,0,1-9.63,9.63H13.63A9.64,9.64,0,0,1,4,31.76V13.63A9.64,9.64,0,0,1,13.63,4H31.76a9.64,9.64,0,0,1,9.63,9.62Z"/><circle class="cls-1" cx="34.74" cy="10.77" r="2.76"/><path class="cls-1" d="M22.78,11.31A11.55,11.55,0,1,0,34.32,22.85,11.56,11.56,0,0,0,22.78,11.31Zm0,19.09a7.55,7.55,0,1,1,7.54-7.55A7.55,7.55,0,0,1,22.78,30.4Z"/></g></svg>