<svg xmlns="http://www.w3.org/2000/svg" viewBox="0 0 45 45"><defs><style>.cls-1{fill:#c9c9c9;}</style></defs><g id="Layer_2" data-name="Layer 2"><path class="cls-1" d="M41,0H4A4,4,0,0,0,0,4V41a4,4,0,0,0,4,4H41a4,4,0,0,0,4-4V4A4,4,0,0,0,41,0ZM13.79,37.54H7.08V15.61h6.71ZM10.44,13A3.53,3.53,0,0,1,6.87,9.49,3.57,3.57,0,1,1,10.44,13ZM38.28,37.33H31.7V24.77c0-6.4-7.13-4.77-7.13-.18V37.45H17.68l-.09-21.83,5.89,0,.31,3.08a8.22,8.22,0,0,1,6.76-3.57,7.67,7.67,0,0,1,7.73,7.55C38.4,26.52,38.28,37.33,38.28,37.33Z"/></g></svg>